<?xml version="1.0" encoding="utf-8"?>
<!-- Generator: Adobe Illustrator 24.0.2, SVG Export Plug-In . SVG Version: 6.00 Build 0)  -->
<svg version="1.1" xmlns="http://www.w3.org/2000/svg" xmlns:xlink="http://www.w3.org/1999/xlink" x="0px" y="0px"
	 viewBox="0 0 268.5 58.8" style="enable-background:new 0 0 268.5 58.8;" xml:space="preserve">
<style type="text/css">
	.st0{fill:#333333;}
	.st1{fill:#5C5C5C;}
	.st2{fill:#D6D6D6;}
	.st3{fill:#FFFFFF;}
	.st4{fill:#A8AAB3;}
	.st5{fill:none;stroke:#57585C;stroke-miterlimit:10;}
	.st6{fill:none;stroke:#FFFFFF;stroke-miterlimit:10;}
	.st7{fill:none;stroke:#000000;stroke-miterlimit:10;}
	.st8{fill:#404040;}
	.st9{fill:#1A1A1A;}
	.st10{fill:none;stroke:#BFBFBF;stroke-miterlimit:10;}
	.st11{fill:none;stroke:#E3E4E7;stroke-linecap:round;stroke-miterlimit:10;}
	.st12{fill:none;stroke:#000000;stroke-linecap:round;stroke-miterlimit:10;}
	.st13{fill:none;stroke:#F2F2F2;stroke-linecap:round;stroke-miterlimit:10;}
	.st14{fill:none;stroke:#565656;stroke-miterlimit:10;}
	.st15{fill:#57585C;}
	.st16{fill:#999999;}
	.st17{stroke:#BFBFBF;stroke-miterlimit:10;}
	.st18{fill:none;stroke:#BC0000;stroke-width:2;stroke-miterlimit:10;}
	.st19{fill:none;stroke:#F9FB00;stroke-width:2;stroke-miterlimit:10;}
	.st20{fill:none;stroke:#FFFFFF;stroke-width:3;stroke-miterlimit:10;}
	.st21{fill:none;stroke:#333333;stroke-width:3;stroke-miterlimit:10;}
	.st22{fill:none;stroke:#FFFFFF;stroke-width:2;stroke-miterlimit:10;}
	.st23{fill:none;stroke:#00FFFF;stroke-miterlimit:10;}
	.st24{fill:#00FFFF;}
	.st25{clip-path:url(#SVGID_2_);fill:#333333;}
	.st26{clip-path:url(#SVGID_2_);}
	.st27{clip-path:url(#SVGID_2_);fill:none;stroke:#FFFFFF;stroke-miterlimit:10;}
	.st28{clip-path:url(#SVGID_2_);fill:#1A1A1A;}
	.st29{clip-path:url(#SVGID_2_);fill:none;stroke:#F2F2F2;stroke-linecap:round;stroke-miterlimit:10;}
	.st30{clip-path:url(#SVGID_2_);fill:none;stroke:#BFBFBF;stroke-miterlimit:10;}
	.st31{clip-path:url(#SVGID_4_);fill:#FFFFFF;}
	.st32{clip-path:url(#SVGID_4_);}
	.st33{clip-path:url(#SVGID_4_);fill:none;stroke:#000000;stroke-miterlimit:10;}
	.st34{clip-path:url(#SVGID_4_);fill:#404040;}
	.st35{clip-path:url(#SVGID_4_);fill:none;stroke:#000000;stroke-linecap:round;stroke-miterlimit:10;}
	.st36{clip-path:url(#SVGID_4_);fill:none;stroke:#BFBFBF;stroke-miterlimit:10;}
	.st37{clip-path:url(#SVGID_4_);fill:none;stroke:#565656;stroke-miterlimit:10;}
	.st38{fill:none;stroke:#333333;stroke-miterlimit:10;}
	.st39{clip-path:url(#SVGID_6_);fill:#333333;}
	.st40{clip-path:url(#SVGID_6_);}
	.st41{clip-path:url(#SVGID_6_);fill:none;stroke:#FFFFFF;stroke-miterlimit:10;}
	.st42{clip-path:url(#SVGID_6_);fill:none;stroke:#F2F2F2;stroke-linecap:round;stroke-miterlimit:10;}
	.st43{clip-path:url(#SVGID_6_);fill:none;stroke:#BFBFBF;stroke-miterlimit:10;}
	.st44{clip-path:url(#SVGID_8_);fill:#FFFFFF;}
	.st45{clip-path:url(#SVGID_8_);}
	.st46{clip-path:url(#SVGID_8_);fill:none;stroke:#57585C;stroke-miterlimit:10;}
	.st47{clip-path:url(#SVGID_8_);fill:none;stroke:#E3E4E7;stroke-linecap:round;stroke-miterlimit:10;}
	.st48{clip-path:url(#SVGID_8_);fill:none;stroke:#BFBFBF;stroke-miterlimit:10;}
	.st49{fill:none;stroke:#F30DFF;stroke-miterlimit:10;}
	.st50{fill:none;stroke:#4FFF36;stroke-miterlimit:10;}
	.st51{fill:#00E30E;stroke:#00FFFF;stroke-miterlimit:10;}
	.st52{fill:#00E30E;}
	.st53{fill:none;stroke:#0007CF;stroke-width:2;stroke-miterlimit:10;}
	.st54{fill:none;stroke:#13FFDC;stroke-miterlimit:10;}
</style>
<g id="Entry">
</g>
<g id="Header">
</g>
<g id="Main">
	<g id="Main_x3E_Header">
	</g>
</g>
<g id="Article">
	<g>
		<g>
			<g>
				<path d="M57.9,48.4c-4.8,0-8.6-1.2-11.4-3.7s-4.3-6.3-4.3-11.4c0-0.2,0-0.4,0-0.6c0-0.2,0-0.4,0-0.5c0.1-3.2,0.8-5.9,2.1-8.1
					c1.3-2.2,3.1-3.9,5.4-5c2.3-1.2,5-1.7,8.2-1.7c3.5,0,6.4,0.7,8.8,2.1c2.3,1.4,4.1,3.3,5.2,5.6c1.2,2.3,1.7,4.9,1.7,7.8v1.6
					c0,0.4-0.2,0.7-0.5,1c-0.3,0.3-0.7,0.5-1.1,0.5H54.2c0,0.2,0,0.3,0,0.3c0,0.9,0.1,1.7,0.4,2.4c0.2,0.7,0.6,1.3,1.2,1.7
					c0.5,0.4,1.2,0.6,2,0.6c0.5,0,0.9-0.1,1.3-0.2c0.3-0.2,0.7-0.4,0.9-0.6c0.3-0.2,0.5-0.5,0.7-0.7c0.3-0.3,0.6-0.6,0.8-0.7
					c0.2-0.1,0.5-0.1,1-0.1h9c0.3,0,0.6,0.1,0.9,0.3c0.2,0.2,0.4,0.5,0.3,0.9c0,0.7-0.4,1.5-1,2.5c-0.6,1-1.5,1.9-2.7,2.8
					c-1.2,0.9-2.8,1.7-4.6,2.3C62.5,48.1,60.3,48.4,57.9,48.4z M54.2,29.5h7.1v-0.1c0-1-0.1-1.9-0.4-2.6c-0.3-0.7-0.7-1.3-1.2-1.6
					c-0.5-0.4-1.2-0.5-2-0.5c-0.8,0-1.4,0.2-2,0.5c-0.5,0.4-0.9,0.9-1.2,1.6c-0.3,0.7-0.4,1.6-0.4,2.6V29.5z"/>
				<path d="M79.7,47.8c-0.4,0-0.8-0.1-1.1-0.4c-0.3-0.3-0.4-0.6-0.4-1.1V8.5c0-0.4,0.1-0.8,0.4-1.1C78.9,7.2,79.3,7,79.7,7h8.6
					c0.4,0,0.7,0.1,1,0.4c0.3,0.3,0.5,0.6,0.5,1.1v37.8c0,0.4-0.2,0.8-0.5,1.1c-0.3,0.3-0.7,0.4-1,0.4H79.7z"/>
				<path d="M97.2,58.8c-0.4,0-0.8-0.1-1.1-0.4c-0.3-0.3-0.4-0.6-0.4-1.1V19.4c0-0.4,0.1-0.8,0.4-1.1s0.6-0.4,1.1-0.4h8.1
					c0.4,0,0.8,0.1,1.1,0.4s0.4,0.6,0.4,1.1v1.9c0.9-1.1,2.1-2.1,3.5-2.8c1.4-0.7,3.2-1.1,5.2-1.1c1.8,0,3.4,0.3,4.9,0.8
					c1.4,0.5,2.7,1.4,3.8,2.4c1.1,1.1,1.9,2.5,2.5,4.2c0.6,1.7,1,3.7,1.1,5.9c0,0.8,0.1,1.5,0.1,2.2c0,0.7,0,1.4-0.1,2.2
					c-0.1,2.1-0.4,4-1,5.7c-0.6,1.6-1.5,3-2.5,4.2c-1.1,1.1-2.3,2-3.8,2.6c-1.5,0.6-3.1,0.9-4.9,0.9c-1.8,0-3.3-0.3-4.7-0.9
					c-1.3-0.6-2.5-1.5-3.3-2.8v12.5c0,0.4-0.2,0.8-0.5,1.1c-0.3,0.3-0.7,0.4-1,0.4H97.2z M111.7,39.4c1,0,1.8-0.2,2.3-0.6
					c0.6-0.4,1-1,1.2-1.7c0.2-0.7,0.4-1.5,0.5-2.4c0.1-1.2,0.1-2.5,0-3.7c-0.1-0.9-0.2-1.7-0.5-2.4c-0.2-0.7-0.7-1.3-1.2-1.7
					c-0.6-0.4-1.3-0.6-2.3-0.6c-1,0-1.8,0.2-2.4,0.6c-0.6,0.4-1,1-1.3,1.7c-0.2,0.7-0.4,1.5-0.4,2.3c0,0.8-0.1,1.5-0.1,2.2
					c0,0.6,0,1.4,0.1,2.2c0,0.8,0.2,1.5,0.5,2.1s0.7,1.1,1.3,1.5C109.9,39.2,110.7,39.4,111.7,39.4z"/>
				<path d="M137.4,58.8c-0.3,0-0.6-0.1-0.9-0.3c-0.2-0.2-0.4-0.5-0.4-0.9c0-0.1,0-0.2,0-0.3c0-0.1,0-0.2,0.1-0.4l4.6-10.9
					l-11.1-26.2c-0.1-0.2-0.1-0.4-0.1-0.6c0.1-0.3,0.2-0.7,0.5-0.9c0.2-0.3,0.5-0.4,0.9-0.4h8.1c0.6,0,1,0.1,1.2,0.4
					c0.2,0.3,0.4,0.6,0.5,0.8l5.6,15l5.8-15c0.2-0.3,0.4-0.6,0.6-0.9c0.3-0.3,0.7-0.4,1.2-0.4h8c0.3,0,0.6,0.1,0.9,0.4
					c0.3,0.3,0.4,0.5,0.4,0.8c0,0.2,0,0.5-0.1,0.7l-16.2,37.7c-0.2,0.3-0.4,0.6-0.7,0.9c-0.3,0.3-0.7,0.4-1.2,0.4H137.4z"/>
				<path d="M180.6,48.4c-4.8,0-8.6-1.2-11.4-3.7s-4.3-6.3-4.3-11.4c0-0.2,0-0.4,0-0.6c0-0.2,0-0.4,0-0.5c0.1-3.2,0.8-5.9,2.1-8.1
					c1.3-2.2,3.1-3.9,5.4-5c2.3-1.2,5-1.7,8.2-1.7c3.5,0,6.4,0.7,8.8,2.1c2.3,1.4,4.1,3.3,5.2,5.6c1.2,2.3,1.7,4.9,1.7,7.8v1.6
					c0,0.4-0.2,0.7-0.5,1c-0.3,0.3-0.7,0.5-1.1,0.5h-17.7c0,0.2,0,0.3,0,0.3c0,0.9,0.1,1.7,0.4,2.4c0.2,0.7,0.6,1.3,1.2,1.7
					c0.5,0.4,1.2,0.6,2,0.6c0.5,0,0.9-0.1,1.3-0.2c0.3-0.2,0.7-0.4,0.9-0.6c0.3-0.2,0.5-0.5,0.7-0.7c0.3-0.3,0.6-0.6,0.8-0.7
					c0.2-0.1,0.5-0.1,1-0.1h9c0.3,0,0.6,0.1,0.9,0.3c0.2,0.2,0.4,0.5,0.3,0.9c0,0.7-0.4,1.5-1,2.5c-0.6,1-1.5,1.9-2.7,2.8
					c-1.2,0.9-2.8,1.7-4.6,2.3C185.2,48.1,183,48.4,180.6,48.4z M176.9,29.5h7.1v-0.1c0-1-0.1-1.9-0.4-2.6c-0.3-0.7-0.7-1.3-1.2-1.6
					c-0.5-0.4-1.2-0.5-2-0.5c-0.8,0-1.4,0.2-2,0.5c-0.5,0.4-0.9,0.9-1.2,1.6c-0.3,0.7-0.4,1.6-0.4,2.6V29.5z"/>
				<path d="M210.2,48.4c-2.1,0-4-0.4-5.7-1.2c-1.7-0.8-3-1.9-3.9-3.2c-0.9-1.4-1.4-2.9-1.4-4.6c0-2.8,1.1-4.9,3.4-6.5
					c2.2-1.6,5.2-2.7,9-3.3l6.7-1v-0.4c0-1.2-0.2-2.1-0.6-2.7c-0.4-0.6-1.1-0.9-2.3-0.9c-0.8,0-1.5,0.2-2,0.5
					c-0.5,0.3-1,0.7-1.4,1.3c-0.4,0.4-0.9,0.6-1.5,0.6h-8.1c-0.4,0-0.7-0.1-0.9-0.3c-0.2-0.2-0.4-0.5-0.3-0.9c0-0.7,0.3-1.5,0.9-2.4
					c0.5-0.9,1.4-1.9,2.5-2.8c1.1-0.9,2.6-1.6,4.4-2.2c1.8-0.6,4-0.9,6.5-0.9c2.6,0,4.8,0.3,6.6,0.9c1.8,0.6,3.4,1.4,4.5,2.4
					c1.2,1,2.1,2.3,2.6,3.8c0.6,1.5,0.9,3.1,0.9,4.9v17c0,0.4-0.1,0.8-0.4,1.1c-0.3,0.3-0.6,0.4-1.1,0.4h-8.3
					c-0.4,0-0.8-0.1-1.1-0.4c-0.3-0.3-0.5-0.6-0.5-1.1v-1.8c-0.5,0.8-1.2,1.4-2,2c-0.8,0.6-1.8,1-2.9,1.4
					C212.7,48.2,211.5,48.4,210.2,48.4z M213.5,40.9c1,0,1.8-0.2,2.5-0.6c0.7-0.4,1.3-1,1.7-1.9c0.4-0.8,0.6-1.9,0.6-3.2v-0.4
					l-4.1,0.8c-1.4,0.3-2.4,0.7-3,1.2c-0.6,0.5-0.9,1.1-0.9,1.7c0,0.5,0.1,0.9,0.4,1.2c0.3,0.3,0.6,0.6,1.1,0.8
					C212.3,40.8,212.9,40.9,213.5,40.9z"/>
				<path d="M237.2,47.8c-0.4,0-0.8-0.1-1.1-0.4c-0.3-0.3-0.4-0.6-0.4-1.1V8.5c0-0.4,0.1-0.8,0.4-1.1c0.3-0.3,0.6-0.4,1.1-0.4h9.3
					c0.4,0,0.7,0.1,1,0.4c0.3,0.3,0.5,0.6,0.5,1.1v12.6c1-1.2,2.3-2.1,3.8-2.7c1.5-0.7,3.2-1,5.1-1c2.1,0,4,0.5,5.7,1.4
					c1.7,1,3.1,2.4,4.2,4.3c1.1,1.9,1.6,4.3,1.6,7.2v16c0,0.4-0.2,0.8-0.5,1.1c-0.3,0.3-0.7,0.4-1,0.4h-9.4c-0.4,0-0.8-0.1-1.1-0.4
					c-0.3-0.3-0.4-0.6-0.4-1.1V30.8c0-1.4-0.3-2.5-1-3.3c-0.7-0.8-1.7-1.1-2.9-1.1s-2.3,0.4-3,1.1c-0.7,0.8-1.1,1.9-1.1,3.3v15.6
					c0,0.4-0.2,0.8-0.5,1.1c-0.3,0.3-0.7,0.4-1,0.4H237.2z"/>
			</g>
		</g>
		<path d="M37,8.7C37-1.1,28.8,0,28.8,0s1.5,5.2,1.3,8h-3.8c-0.4,0-0.7,0.1-1,0.4c-0.3,0.3-0.5,0.6-0.5,1.1v12.9h-6.3h-6.3V9.5
			c0-0.4-0.2-0.8-0.5-1.1c-0.3-0.3-0.6-0.4-1-0.4H6.9C6.7,5.2,8.2,0,8.2,0S0-1.1,0,8.7v0.6c0,0,0,0,0,0c0,0.1,0,0.2,0,0.2v36.9
			c0,0.4,0.1,0.8,0.4,1.1c0.3,0.3,0.6,0.4,1.1,0.4h9.3c0.4,0,0.7-0.1,1-0.4c0.3-0.3,0.5-0.6,0.5-1.1V33.2h6.3h6.3v13.2
			c0,0.4,0.2,0.8,0.5,1.1c0.3,0.3,0.6,0.4,1,0.4h9.3c0.4,0,0.8-0.1,1.1-0.4c0.3-0.3,0.4-0.6,0.4-1.1V9.5c0-0.1,0-0.2,0-0.2
			c0,0,0,0,0,0V8.7z"/>
	</g>
</g>
<g id="Footer">
</g>
<g id="Comentarios">
</g>
</svg>
