<?xml version="1.0" encoding="utf-8"?>
<!-- Generator: Adobe Illustrator 24.0.2, SVG Export Plug-In . SVG Version: 6.00 Build 0)  -->
<svg version="1.1" xmlns="http://www.w3.org/2000/svg" xmlns:xlink="http://www.w3.org/1999/xlink" x="0px" y="0px"
	 viewBox="0 0 37 47.9" style="enable-background:new 0 0 37 47.9;" xml:space="preserve">
<style type="text/css">
	.st0{fill:#333333;}
	.st1{fill:#5C5C5C;}
	.st2{fill:#D6D6D6;}
	.st3{fill:#FFFFFF;}
	.st4{fill:#A8AAB3;}
	.st5{fill:none;stroke:#57585C;stroke-miterlimit:10;}
	.st6{fill:none;stroke:#FFFFFF;stroke-miterlimit:10;}
	.st7{fill:none;stroke:#000000;stroke-miterlimit:10;}
	.st8{fill:#404040;}
	.st9{fill:#1A1A1A;}
	.st10{fill:none;stroke:#BFBFBF;stroke-miterlimit:10;}
	.st11{fill:none;stroke:#E3E4E7;stroke-linecap:round;stroke-miterlimit:10;}
	.st12{fill:none;stroke:#000000;stroke-linecap:round;stroke-miterlimit:10;}
	.st13{fill:none;stroke:#F2F2F2;stroke-linecap:round;stroke-miterlimit:10;}
	.st14{fill:none;stroke:#565656;stroke-miterlimit:10;}
	.st15{fill:#57585C;}
	.st16{fill:#999999;}
	.st17{stroke:#BFBFBF;stroke-miterlimit:10;}
	.st18{fill:none;stroke:#BC0000;stroke-width:2;stroke-miterlimit:10;}
	.st19{fill:none;stroke:#F9FB00;stroke-width:2;stroke-miterlimit:10;}
	.st20{fill:none;stroke:#FFFFFF;stroke-width:3;stroke-miterlimit:10;}
	.st21{fill:none;stroke:#333333;stroke-width:3;stroke-miterlimit:10;}
	.st22{fill:none;stroke:#FFFFFF;stroke-width:2;stroke-miterlimit:10;}
	.st23{fill:none;stroke:#00FFFF;stroke-miterlimit:10;}
	.st24{fill:#00FFFF;}
	.st25{clip-path:url(#SVGID_2_);fill:#333333;}
	.st26{clip-path:url(#SVGID_2_);}
	.st27{clip-path:url(#SVGID_2_);fill:none;stroke:#FFFFFF;stroke-miterlimit:10;}
	.st28{clip-path:url(#SVGID_2_);fill:#1A1A1A;}
	.st29{clip-path:url(#SVGID_2_);fill:none;stroke:#F2F2F2;stroke-linecap:round;stroke-miterlimit:10;}
	.st30{clip-path:url(#SVGID_2_);fill:none;stroke:#BFBFBF;stroke-miterlimit:10;}
	.st31{clip-path:url(#SVGID_4_);fill:#FFFFFF;}
	.st32{clip-path:url(#SVGID_4_);}
	.st33{clip-path:url(#SVGID_4_);fill:none;stroke:#000000;stroke-miterlimit:10;}
	.st34{clip-path:url(#SVGID_4_);fill:#404040;}
	.st35{clip-path:url(#SVGID_4_);fill:none;stroke:#000000;stroke-linecap:round;stroke-miterlimit:10;}
	.st36{clip-path:url(#SVGID_4_);fill:none;stroke:#BFBFBF;stroke-miterlimit:10;}
	.st37{clip-path:url(#SVGID_4_);fill:none;stroke:#565656;stroke-miterlimit:10;}
	.st38{fill:none;stroke:#333333;stroke-miterlimit:10;}
	.st39{clip-path:url(#SVGID_6_);fill:#333333;}
	.st40{clip-path:url(#SVGID_6_);}
	.st41{clip-path:url(#SVGID_6_);fill:none;stroke:#FFFFFF;stroke-miterlimit:10;}
	.st42{clip-path:url(#SVGID_6_);fill:none;stroke:#F2F2F2;stroke-linecap:round;stroke-miterlimit:10;}
	.st43{clip-path:url(#SVGID_6_);fill:none;stroke:#BFBFBF;stroke-miterlimit:10;}
	.st44{clip-path:url(#SVGID_8_);fill:#FFFFFF;}
	.st45{clip-path:url(#SVGID_8_);}
	.st46{clip-path:url(#SVGID_8_);fill:none;stroke:#57585C;stroke-miterlimit:10;}
	.st47{clip-path:url(#SVGID_8_);fill:none;stroke:#E3E4E7;stroke-linecap:round;stroke-miterlimit:10;}
	.st48{clip-path:url(#SVGID_8_);fill:none;stroke:#BFBFBF;stroke-miterlimit:10;}
	.st49{fill:none;stroke:#F30DFF;stroke-miterlimit:10;}
	.st50{fill:none;stroke:#4FFF36;stroke-miterlimit:10;}
	.st51{fill:#00E30E;stroke:#00FFFF;stroke-miterlimit:10;}
	.st52{fill:#00E30E;}
	.st53{fill:none;stroke:#0007CF;stroke-width:2;stroke-miterlimit:10;}
	.st54{fill:none;stroke:#13FFDC;stroke-miterlimit:10;}
</style>
<g id="Entry">
</g>
<g id="Header">
</g>
<g id="Main">
	<g id="Main_x3E_Header">
	</g>
</g>
<g id="Article">
	<path d="M37,8.7C37-1.1,28.8,0,28.8,0s1.5,5.2,1.3,8h-3.8c-0.4,0-0.7,0.1-1,0.4c-0.3,0.3-0.5,0.6-0.5,1.1v12.9h-6.3h-6.3V9.5
		c0-0.4-0.2-0.8-0.5-1.1c-0.3-0.3-0.6-0.4-1-0.4H6.9C6.7,5.2,8.2,0,8.2,0S0-1.1,0,8.7v0.6c0,0,0,0,0,0c0,0.1,0,0.2,0,0.2v36.9
		c0,0.4,0.1,0.8,0.4,1.1c0.3,0.3,0.6,0.4,1.1,0.4h9.3c0.4,0,0.7-0.1,1-0.4c0.3-0.3,0.5-0.6,0.5-1.1V33.2h6.3h6.3v13.2
		c0,0.4,0.2,0.8,0.5,1.1c0.3,0.3,0.6,0.4,1,0.4h9.3c0.4,0,0.8-0.1,1.1-0.4c0.3-0.3,0.4-0.6,0.4-1.1V9.5c0-0.1,0-0.2,0-0.2
		c0,0,0,0,0,0V8.7z"/>
</g>
<g id="Footer">
</g>
<g id="Comentarios">
</g>
</svg>
